<?xml version="1.0" encoding="utf-8"?>
<!-- Generator: Adobe Illustrator 16.0.0, SVG Export Plug-In . SVG Version: 6.00 Build 0)  -->
<!DOCTYPE svg PUBLIC "-//W3C//DTD SVG 1.1//EN" "http://www.w3.org/Graphics/SVG/1.1/DTD/svg11.dtd">
<svg version="1.1" id="Layer_1" xmlns="http://www.w3.org/2000/svg" xmlns:xlink="http://www.w3.org/1999/xlink" x="0px" y="0px"
	 width="48px" height="48px" viewBox="0 0 48 48" enable-background="new 0 0 48 48" xml:space="preserve">
<ellipse opacity="0.19" enable-background="new    " cx="23.5" cy="44.7" rx="10.4" ry="3.3"/>
<path fill="#EF5350" d="M23.5,0c-9.4,0-17,7.5-17,16.8s17,28,17,28s17-18.7,17-28S32.9,0,23.5,0z"/>
<circle fill="#3B4151" cx="23.5" cy="15.5" r="4.2"/>
<circle fill="#D32F2F" cx="23.5" cy="15.5" r="4.2"/>
<path opacity="0.3" d="M27.7,15.5c0-2.319-1.882-4.2-4.2-4.2c-2.319,0-4.2,1.881-4.2,4.2c0,0.043,0.008,0.083,0.013,0.125
	c-0.001,0.042-0.013,0.082-0.013,0.125c0,0.121,0.025,0.235,0.036,0.354c0.183-2.151,1.966-3.846,4.165-3.846
	s3.981,1.695,4.164,3.846c0.011-0.119,0.036-0.233,0.036-0.354c0-0.043-0.012-0.083-0.014-0.126
	C27.691,15.583,27.7,15.542,27.7,15.5z"/>
</svg>
